<?xml version="1.0" encoding="utf-8"?>
<!-- Generator: Adobe Illustrator 12.0.0, SVG Export Plug-In . SVG Version: 6.00 Build 51448)  -->
<!DOCTYPE svg PUBLIC "-//W3C//DTD SVG 1.1 Tiny//EN" "http://www.w3.org/Graphics/SVG/1.1/DTD/svg11-tiny.dtd" [
	<!ENTITY ns_svg "http://www.w3.org/2000/svg">
	<!ENTITY ns_xlink "http://www.w3.org/1999/xlink">
]>
<svg  version="1.1" baseProfile="tiny" id="Layer_1" xmlns="&ns_svg;" xmlns:xlink="&ns_xlink;" width="700.815" height="137.332"
	 viewBox="0 0 700.815 137.332" xml:space="preserve">
<g>
	<path fill="#4E564E" stroke="#F9F6DF" stroke-width="2" d="M108.908,134.377l-0.422,0.855L107.113,136l-1.479-2.307l-1.479-4.527
		l-1.373-1.965v-1.195l-0.416-6.834l-2.5-6.492l-0.834-7.004l-1.598-4.699l-1.918-6.834l-0.639-5.039l-2.025-2.818l-1.703-5.211
		v-4.271l-1.492-3.502l0.213-7.176l-1.584-2.391l-0.633-3.84l-0.211-5.463l0.844-5.379l1.371-2.986l-1.361-3.33l-0.627-3.498
		l-0.209-4.014l-2.617-1.707l-2.303-0.77l-2.824,2.307l-3.141,3.5l-2.848,4.355l-2.426,5.037l-2.111,5.637l-1.898,4.695L65.5,63.061
		l-1.898,4.697l-1.594,2.646l-1.701,1.367l-1.912,0.854l-2.871-1.023l-1.912-2.477l-3.271-4.01l-1.793-3.668l-2.32-8.359
		L45.38,49.25l-1.371-4.693L41.9,40.293l-1.268-3.84l-1.793-3.156l-2.137-1.023l-2.67-1.023l-1.26,2.307l-1.68,3.842l-1.994,4.697
		l-1.678,9.994l-1.365,5.721v2.137l-1.049,7.686l-2.1,9.225l-0.211,4.953l1.926,1.707l0.213,3.674l1.072,3.16l-2.117,2.818
		l-2.434,2.818L17.228,96.5h-4.021l-5.082,0.172l-3.387-1.197l-2.436-1.453l-1.27-3.332l1.273-7.178l2.441-3.674l1.91-0.684
		l0.422-8.717l3.693-10.34l0.633-4.186l2.639-3.846l-0.213-2.479l2.955-3.846v-2.477l6.119-12.049l0.844-2.479l1.9-1.195
		l0.633-3.162l2.85-2.988l3.691-4.355l3.271-1.537h2.744l1.793,1.707l1.898,3.16l1.268,4.012l1.582,4.355l2.109,5.813l1.057,4.018
		l1.793,4.703l0.844,3.676l0.846,5.129l0.633,4.188l1.582,4.018l2.744,2.822l1.582,1.025l1.688-1.625l1.055-2.908l2.006-3.334
		l2.32-5.645l2.639-5.047l1.477-3.848l1.477-2.822l-1.477-1.365l-1.268-2.816l0.211-3.498l1.9-3.668l2.217-3.498l0.844-3.328
		l2.85-4.01l2.109-1.791l2.85-3.072l3.906-1.963l2.322-1.193l3.482,0.682l3.482,0.342l3.588,1.707l2.85,2.135l2.428,2.646
		l0.633,3.672l0.209,4.355l-0.209,4.012l-0.211,5.039l0.42,9.477v5.465l1.893,9.563l-0.211,4.697l-0.422,6.318l-0.211,5.123v4.695
		l-0.633,5.721l-1.258,2.307l1.258,4.525v9.307l1.27,1.879l0.211,6.318l0.846,5.123l1.375,9.391l0.424,4.186V134.377z
		 M17.658,107.168l-1.572,1.207l-1.678-0.172l0.209-2.328h1.678L17.658,107.168z M41.908,2.203L40.843,3.75l-1.811-0.516L39.246,1
		h2.023L41.908,2.203z M112.533,74.895l-2.201,1.855l-1.049-1.855l1.467-1.77L112.533,74.895z"/>
	<path fill="#4E564E" stroke="#F9F6DF" stroke-width="2" d="M129.524,74.281l-1.176,0.73L127.17,75.5l-0.146-1.219L127.758,73h1.324
		L129.524,74.281z M186.649,92.723l-1.109,5.627l-2.734,5.748l-1.922,3.352l-1.848,2.035l-2.439,2.453l-2.809,2.336l-3.4,1.496
		l-4.951,1.197l-5.322,0.658l-5.1-0.539l-4.584-0.719l-3.621-1.615l-6.801-3.291l-3.916-3.053l-1.996-1.736l-2.588-2.574
		l-1.625-3.291l-1.109-3.293l-0.59-3.471l0.59-2.574l-0.738-3.293l-0.887-2.453l1.035-2.934v-1.496l1.033-0.957v-2.334l0.959-1.496
		l1.623-1.557l1.107-3.172l2.066-2.873l2.287-2.035l1.623-2.334l1.994-0.24l2.287-1.496l1.623-0.6l2.141-0.838l2.141-1.375
		l2.361-0.719l2.287-1.855l2.141-2.096l0.738-0.598L158.44,54l2.879,0.479l2.656,1.439l2.289,2.098l0.885,3.176l-0.443,2.219
		l-2.879,2.336l-3.768,1.379l-5.096,0.238l-3.322,3.65l-2.141,3.707l-2.438,2.691l-2.143,4.666l-0.59,4.605l-1.182,4.188
		l2.074,4.307l0.666,4.127l2.74,2.572l2.666,4.904l1.998,0.359l1.037,0.896l2.443,0.479l3.332,0.359l3.926-0.838l3.852-1.018
		l2.369-1.555l0.148-4.309l1.703-0.838l-0.148-3.473l1.037-2.273l0.443-2.453l0.963-2.094l-0.592-2.096l-0.369-3.172l-1.479-2.213
		l-1.996-1.137l-1.477-2.455l-2.588-2.813l0.443-2.334l0.887-2.033l1.697-0.898h2.438l3.176,1.615l3.027,1.318l1.477,2.334
		l1.994,1.496l0.59,2.455l1.182,2.453l0.959,1.977l1.625,1.914l0.443,3.232L186.649,92.723z M153.899,55.965l-1.313,0.91
		l-0.438-0.91l0.438-1.215l1.313,0.242V55.965z"/>
	<path fill="#4E564E" stroke="#F9F6DF" stroke-width="2" d="M199.682,74.281l-1.176,0.73l-1.178,0.488l-0.146-1.219L197.917,73
		h1.324L199.682,74.281z M256.807,92.723l-1.109,5.627l-2.734,5.748l-1.922,3.352l-1.848,2.035l-2.439,2.453l-2.809,2.336
		l-3.4,1.496l-4.951,1.197l-5.322,0.658l-5.1-0.539l-4.584-0.719l-3.621-1.615l-6.801-3.291l-3.916-3.053l-1.996-1.736l-2.588-2.574
		l-1.625-3.291l-1.109-3.293l-0.59-3.471l0.59-2.574l-0.738-3.293l-0.887-2.453l1.035-2.934v-1.496l1.033-0.957v-2.334l0.959-1.496
		l1.623-1.557l1.107-3.172l2.066-2.873l2.287-2.035l1.623-2.334l1.994-0.24l2.287-1.496l1.623-0.6l2.141-0.838l2.141-1.375
		l2.361-0.719l2.287-1.855l2.141-2.096l0.738-0.598L228.598,54l2.879,0.479l2.656,1.439l2.289,2.098l0.885,3.176l-0.443,2.219
		l-2.879,2.336l-3.768,1.379l-5.096,0.238l-3.322,3.65l-2.141,3.707l-2.438,2.691l-2.143,4.666l-0.59,4.605l-1.182,4.188
		l2.074,4.307l0.666,4.127l2.74,2.572l2.666,4.904l1.998,0.359l1.037,0.896l2.443,0.479l3.332,0.359l3.926-0.838l3.852-1.018
		l2.369-1.555l0.148-4.309l1.703-0.838l-0.148-3.473l1.037-2.273l0.443-2.453l0.963-2.094l-0.592-2.096l-0.369-3.172l-1.479-2.213
		l-1.996-1.137l-1.477-2.455l-2.588-2.813l0.443-2.334l0.887-2.033l1.697-0.898h2.438l3.176,1.615l3.027,1.318l1.477,2.334
		l1.994,1.496l0.59,2.455l1.182,2.453l0.959,1.977l1.625,1.914l0.443,3.232L256.807,92.723z M224.057,55.965l-1.313,0.91
		l-0.438-0.91l0.438-1.215l1.313,0.242V55.965z"/>
	<path fill="#4E564E" stroke="#F9F6DF" stroke-width="2" d="M368.34,84.719l-1.795,4.016l-0.211,2.564l-3.693,6.664l-2.955,4.783
		l-1.793,2.051l-2.744,3.332l-3.482,2.648l-2.85,2.99l-4.961,2.393l-9.287,1.623l-4.115,0.342l-4.539-0.684l-9.92-0.938
		l-3.061-1.365l-4.537-1.621l-7.283-3.84l-7.387-4.012l-5.594-4.863l-4.115-1.963l-2.428-3.242l-4.559-3.328l-2.969-5.121
		l-3.076-4.863l-1.271-5.291v-6.912l-0.211-8.277l1.268-6.229l2.111-5.803l3.273-5.461l0.211-5.377l2.006-5.375l2.324-2.475
		l1.266-1.793l3.484-1.705l4.963-2.475l4.541-1.025l6.547-0.854l8.025-2.645l6.441-1.791l3.484-2.049l6.441,0.342l6.969,0.516
		l4.328,2.656l3.168,0.514l4.752,3.855l4.541,6.514l0.316,2.229l-3.244,0.428l-1.256,3.525l-5.271,1.547l-4.32-2.32l-6.221-0.344
		l-5.164-2.234l-5.799-0.602l-5.48,1.449l-7.063,1.363l-5.904,1.959l-3.584,2.385l-2.846,3.324l-2.846,4.004l-2.742,6.475
		l-2.002,7.498l-0.422,3.834l-0.211,4.941l1.055,5.879l0.527,5.965l2.74,5.197l2.846,3.834l9.277,8.775l5.586,2.982l3.689,1.533
		l10.541,0.852l9.277-2.053l7.801-2.137l4.953-4.018l3.48-4.361l5.585-5.473l3.268-1.025l3.689-0.684l2.742-3.645l2.635-1.355
		l3.057,0.512V84.719z"/>
	<path fill="#4E564E" stroke="#F9F6DF" stroke-width="2" d="M380.081,117.125l-0.65,0.25l-0.725-0.25V116.5l0.434-0.25l0.797,0.125
		l0.145,0.375V117.125z M448.706,127.672l-0.59,0.596l-1.182,0.357l-0.443-0.594l-0.813-0.891l-1.035-1.664l-1.477-1.604
		l-2.143-3.031l-1.551-2.91l-0.592-2.08l-1.035-1.129l-1.846-4.219l-1.479-1.484l-1.182-2.197l-1.699-2.199l-1.33-0.951
		l-3.178-2.791l-0.664-1.605l-2.514-1.426l-3.178-0.475l-3.4,0.354l-3.473,0.471l-2.514,0.826l-2.734,1.945l-2.586,1.061
		l-0.592,1.002l-1.996,1.178l-4.213,1.945l-0.813,0.707l-0.592,2.689v1.734l-1.035,0.957v2.092l-0.443,2.213l0.443,3.586
		l-0.443,2.451l-0.885,2.572l-1.402,2.031l-1.623,1.615l-2.73,1.973l-2.582,0.359l-2.436,0.238l-0.738-0.479h-1.4l-1.033-1.016
		l-0.738-0.479v-1.195l-0.738-0.898v-2.451l0.738-1.553l-0.148-1.375l0.443-0.838l0.887-0.359v-1.135l1.402-0.598l0.592-1.076
		l0.885-1.496l1.256-0.479l1.182-2.211l0.443-2.451l0.738-0.359l-0.295-1.613l0.59-2.451v-1.555l-1.305-2.332l-0.869-2.092
		l-0.289-2.332l-0.146-1.615l0.436-0.479l-0.289-0.836v-0.479l2.201-2.213v-0.717l1.248-1.137l1.615-2.092l1.98-2.332l0.441-1.674
		l0.146-1.256l-0.148-0.955l0.74-3.051l0.59-2.928l1.256-3.707l0.295-2.094l0.592-0.955l-0.146-3.17l-0.297-2.809l0.295-2.691
		l1.182-2.213l1.107-1.732l1.33-0.838l0.441-1.613l0.961-1.076l0.443-1.018l-0.443-0.717l0.295-1.613l-1.107-1.914l0.295-1.973
		l-0.887-0.896l0.443-1.555h0.961l1.623-1.018l0.885-0.119l0.666-0.957l2.361-0.238l1.992,0.719l1.697,2.094l0.738,0.359l1.18,1.855
		l1.402,2.215l0.59,2.096l1.328,2.395l1.697,1.855l0.148,1.018l1.18,1.076l0.738,1.258l1.402,1.557l-0.146,1.496l1.328,2.215
		l0.146,0.957l0.813,1.197l0.738,2.094l1.18,1.736L426.292,73l0.664,2.094l0.885,2.934v1.078l0.738,1.615l1.033,2.813l0.959,2.574
		l0.297,2.096l0.736,1.496l1.992,1.078l2.363,0.598l2.877-0.121h2.73l2.73,0.484l0.443,0.664l0.59,0.604l-0.59,0.363l-0.443,0.604
		L443.116,95l-1.551,0.119l-0.592,0.596l-2.289,0.355l-2.584,0.953l-1.035,0.773v1.428l0.443,1.727l0.961,1.727l1.182,1.666
		l1.033,2.439l0.738,1.488l0.961,2.32l1.033,2.084l1.551,2.559l1.035,2.143l0.59,3.332l0.738,0.357l0.975,1.727l1.051,1.666v1.012
		l0.75,0.596L448.706,127.672z M382.706,133.15l-0.148,0.475l-1.033-0.119l-0.443-0.887l0.738-0.119h0.887V133.15z M389.456,87.031
		l-0.152,0.605L388.618,88l-0.912-0.484v-0.607l0.762-0.666L389.304,86l0.152,0.363V87.031z M421.077,89.029l-0.664-1.316
		l-1.479-2.215l-0.295-2.096l-0.738-0.959l-0.518-1.258l-0.887-1.197l0.148-3.172l-1.922-2.096l0.592-0.898l-0.738-1.438
		l-0.961-4.311l-1.182-1.975l-0.148-1.557l-1.699-1.736l-0.592-0.959l-1.477-2.574l-3.033,2.451l0.297,1.555l-1.111,1.375v1.434
		l-0.295,0.777l-0.592,2.451l-0.297,2.152v0.66l-0.738,0.838v1.738l-0.297,3.416v1.617l-0.813,1.439l0.518,1.498l-0.814,1.857
		l1.256,1.438l3.475,1.26l3.621,1.078l3.031,1.379l1.699,0.959l2.957,0.479l1.996-0.359l0.59-0.359L421.077,89.029z M413.956,89.322
		l-0.887,0.178l-0.738-0.414l0.148-0.475h0.738l0.443-0.236l0.295,0.355V89.322z M447.456,92.5l-0.141,0.5l-0.563,0.25h-0.422
		v-0.375l0.141-0.5l0.281-0.125L447.456,92.5z M448.831,132.125c-0.051,0.082-0.307,0.166-0.764,0.25l-0.459-0.125l-0.152-0.375
		l0.459-0.375l0.764,0.125L448.831,132.125z"/>
	<path fill="#4E564E" stroke="#F9F6DF" stroke-width="2" d="M523.419,45.277l-0.146,1.734v1.973l-0.887,1.314l0.295,1.016
		l-0.592,1.674l-1.701,1.734l-1.33,1.615l-0.666,3.525v2.213l-0.74,3.049l0.148,1.613l-0.74,2.691l-0.146,2.451l-1.406,2.211
		l-0.592,2.811l-0.295,2.811l-4.512,7.711l-1.553,0.957l-0.443,1.854l-1.332,1.732l-0.666,2.811l-0.74,1.674v2.332l-1.773,3.826
		l-1.258,1.793l-0.443,2.871l-0.297,2.273l-0.738,2.213l0.146,1.855l-0.443,1.975l0.297,1.076l-1.258,1.256l-1.332,2.453h-1.182
		l-1.555-0.24l-0.592-1.734l-2.883-1.256l-1.035-2.154l-0.666-1.854l-1.627-2.215v-1.496l-1.553-1.436l1.404-2.213l-1.553-2.213
		l-0.443-3.291l-2.219-3.947l-0.814-3.41l-0.738-2.693l-1.035-4.307l-0.592-1.436l-0.814-2.094l-1.184-2.572l-2.145-5.145
		l-2.439-2.932l-1.611,2.453l-0.584,0.957v6.877l-0.586,3.291l0.439,3.049l-0.807,3.59l-0.73,3.768l-1.172,1.855l-0.586,3.049
		l-0.658,3.648l-0.293,6.998l-1.037,1.734l0.594,1.557l-1.631,1.734l-2.738,0.957l-3.48,0.119l-2.74-1.316l-0.74-2.213l-1.111-2.691
		l-0.74-2.453v-1.973l2-2.453l1.332-1.076l1.186-1.258l1.406-2.57l0.148-3.291l1.48-2.811l0.52-2.572l1.332-1.975l-0.592-5.742
		l-0.74-1.854l-0.52-3.291l0.814-3.289l1.037-2.213l0.889-2.813l2.295-1.734l1.037-7.238l2.125-2.213l0.586-2.453l2.125-2.152
		l0.732-0.658l1.025-0.598l0.367-1.496l0.879-0.479h1.318l0.953,0.896l0.439,1.795l0.879,2.932l0.732,3.471l1.1,8.076l0.586,3.648
		l1.029,2.213l0.441,2.334l0.293,2.213l1.104,3.291l0.441,3.709l1.91,2.453l1.104,3.65l0.293,3.469l1.029,2.932l1.104,3.41
		l0.734,2.213l0.588,1.197h1.221l0.992-1.197l1.83-1.256l0.592-2.57l1.109-0.598l-0.297-1.195l1.037-2.93l-0.445-1.973l0.445-2.451
		l1.33-1.137l1.406-1.793l1.182-2.211l1.555-2.213l1.479-1.375v-2.271l1.404-2.211l0.74-1.496l1.035-2.689l0.592-2.211l-0.301-3.527
		l-1.049-2.691l-1.201-2.809l-1.273-2.094v-2.449l-0.301-3.17l1.564-1.375v-1.732l1.191-1.195l0.744-3.826l1.111-2.271l1.186,0.477
		l2.596-0.775l1.482-1.436l2.742-0.896l1.854-0.479l1.629,1.016l0.965,1.795l0.889-0.121L523.419,45.277z M462.397,123.643
		l-1.426,0.482l-1.199-0.482l0.449-1.268l1.65,0.301L462.397,123.643z M496.272,55.348l-1.75,0.902v-1.625l1.604,0.121
		L496.272,55.348z"/>
	<path fill="#4E564E" stroke="#F9F6DF" stroke-width="2" d="M583.027,49.729l-0.295,1.076l-0.885,1.016l-1.256,1.197l-0.885,1.732
		l-1.033,1.854l-1.402,1.795l-1.328,2.211l-0.887,2.57l-1.549,2.93l-1.477,2.811l-2.436,4.186l-0.59,1.613l-0.518,2.213l-0.59,2.033
		l-0.59,2.451l-0.592,3.229l-0.59,2.93l-0.813,3.168l-0.146,2.213l-0.738,2.332l-0.738,2.451l-1.033,2.211l-2.73,4.365l-0.443,1.375
		l-1.4,1.973l-1.77,1.436l-0.959,1.973l-1.328,1.375l-0.592,2.152l-0.959,2.092l-2.363,1.734l-2.881,1.076l-2.291-0.238
		l-2.289-0.838l-1.182-1.732l-0.443-1.973v-1.912l0.738-1.613l-0.738-1.613l-0.803-2.15l-0.146-1.973l0.146-2.688l-0.584-1.854
		v-2.33l-0.885-1.076l0.146-1.613l-0.736-1.494l-1.402-4.123l-1.031-1.494l-0.443-1.791l-0.59-2.211l0.443-2.092l-1.844-1.494
		l-0.885-2.57l-1.328-1.672l-0.516-1.854l-1.623-1.732l-1.842-1.674l-1.623-1.135l-1.549-1.973l-1.031-1.193l0.295-1.973
		l0.885-1.973l1.4-1.314L527.695,61h2.434l2.285,0.777l2.729,1.074l2.285,2.09l1.77,3.285l0.443,2.449v3.584l1.254,3.045l1.18,2.33
		l1.326,2.449l0.811,3.523l0.59,3.166l1.033,2.807l0.59,2.209l0.516,2.33l0.295,2.449l0.443,2.09l1.031,0.717l1.697-0.479
		l1.328-1.076l0.885-2.211l0.813-1.734l0.887-1.613l1.033-2.152l0.959-1.256l0.443-2.092l1.328-2.57l1.033-2.33l1.107-2.033
		l0.59-1.613l0.887-1.496l-0.148-1.793l1.107-1.613l-0.148-1.494l1.92-1.076l0.885-2.689l1.551-2.094l1.328-2.449l1.254-1.854
		l1.182-1.555l1.402-2.092l1.771-1.973l-0.148-1.436l1.551-2.449l0.295-1.973l0.738-1.137l1.328-0.717l0.959-1.555l1.182-0.777
		l1.475-0.119l1.402,0.777L583.027,49.729z"/>
	<path fill="#4E564E" stroke="#F9F6DF" stroke-width="2" d="M584.427,117.125l-0.65,0.25l-0.725-0.25V116.5l0.434-0.25l0.797,0.125
		l0.145,0.375V117.125z M653.052,127.672l-0.59,0.596l-1.182,0.357l-0.443-0.594l-0.813-0.891l-1.035-1.664l-1.477-1.604
		l-2.143-3.031l-1.551-2.91l-0.592-2.08l-1.035-1.129l-1.846-4.219l-1.479-1.484l-1.182-2.197l-1.699-2.199l-1.33-0.951
		l-3.178-2.791l-0.664-1.605l-2.514-1.426l-3.178-0.475l-3.4,0.354l-3.473,0.471l-2.514,0.826l-2.734,1.945l-2.586,1.061
		l-0.592,1.002l-1.996,1.178l-4.213,1.945l-0.813,0.707l-0.592,2.689v1.734l-1.035,0.957v2.092l-0.443,2.213l0.443,3.586
		l-0.443,2.451l-0.885,2.572l-1.402,2.031l-1.623,1.615l-2.73,1.973l-2.582,0.359l-2.436,0.238l-0.738-0.479h-1.4l-1.033-1.016
		l-0.738-0.479v-1.195l-0.738-0.898v-2.451l0.738-1.553l-0.148-1.375l0.443-0.838l0.887-0.359v-1.135l1.402-0.598l0.592-1.076
		l0.885-1.496l1.256-0.479l1.182-2.211l0.443-2.451l0.738-0.359l-0.295-1.613l0.59-2.451v-1.555l-1.305-2.332l-0.869-2.092
		l-0.289-2.332l-0.146-1.615l0.436-0.479l-0.289-0.836v-0.479l2.201-2.213v-0.717l1.248-1.137l1.615-2.092l1.98-2.332l0.441-1.674
		l0.146-1.256l-0.148-0.955l0.74-3.051l0.59-2.928l1.256-3.707l0.295-2.094l0.592-0.955l-0.146-3.17l-0.297-2.809l0.295-2.691
		l1.182-2.213l1.107-1.732l1.33-0.838l0.441-1.613l0.961-1.076l0.443-1.018l-0.443-0.717l0.295-1.613l-1.107-1.914l0.295-1.973
		l-0.887-0.896l0.443-1.555h0.961l1.623-1.018l0.885-0.119l0.666-0.957l2.361-0.238l1.992,0.719l1.697,2.094l0.738,0.359l1.18,1.855
		l1.402,2.215l0.59,2.096l1.328,2.395l1.697,1.855l0.148,1.018l1.18,1.076l0.738,1.258l1.402,1.557l-0.146,1.496l1.328,2.215
		l0.146,0.957l0.813,1.197l0.738,2.094l1.18,1.736L630.638,73l0.664,2.094l0.885,2.934v1.078l0.738,1.615l1.033,2.813l0.959,2.574
		l0.297,2.096l0.736,1.496l1.992,1.078l2.363,0.598l2.877-0.121h2.73l2.73,0.484l0.443,0.664l0.59,0.604l-0.59,0.363l-0.443,0.604
		L647.462,95l-1.551,0.119l-0.592,0.596l-2.289,0.355l-2.584,0.953l-1.035,0.773v1.428l0.443,1.727l0.961,1.727l1.182,1.666
		l1.033,2.439l0.738,1.488l0.961,2.32l1.033,2.084l1.551,2.559l1.035,2.143l0.59,3.332l0.738,0.357l0.975,1.727l1.051,1.666v1.012
		l0.75,0.596L653.052,127.672z M587.052,133.15l-0.148,0.475l-1.033-0.119l-0.443-0.887l0.738-0.119h0.887V133.15z M593.802,87.031
		l-0.152,0.605L592.964,88l-0.912-0.484v-0.607l0.762-0.666L593.649,86l0.152,0.363V87.031z M625.423,89.029l-0.664-1.316
		l-1.479-2.215l-0.295-2.096l-0.738-0.959l-0.518-1.258l-0.887-1.197l0.148-3.172l-1.922-2.096l0.592-0.898l-0.738-1.438
		l-0.961-4.311L616.78,66.1l-0.148-1.557l-1.699-1.736l-0.592-0.959l-1.477-2.574l-3.033,2.451l0.297,1.555l-1.111,1.375v1.434
		l-0.295,0.777l-0.592,2.451l-0.297,2.152v0.66l-0.738,0.838v1.738l-0.297,3.416v1.617l-0.813,1.439l0.518,1.498l-0.814,1.857
		l1.256,1.438l3.475,1.26l3.621,1.078l3.031,1.379l1.699,0.959l2.957,0.479l1.996-0.359l0.59-0.359L625.423,89.029z M618.302,89.322
		l-0.887,0.178l-0.738-0.414l0.148-0.475h0.738l0.443-0.236l0.295,0.355V89.322z M651.802,92.5l-0.141,0.5l-0.563,0.25h-0.422
		v-0.375l0.141-0.5l0.281-0.125L651.802,92.5z M653.177,132.125c-0.051,0.082-0.307,0.166-0.764,0.25l-0.459-0.125l-0.152-0.375
		l0.459-0.375l0.764,0.125L653.177,132.125z"/>
	<path fill="#4E564E" stroke="#F9F6DF" stroke-width="2" d="M699.118,62.754l-1.408,1.496h-1.926l-2.295-0.65l-2.148-0.83
		l-2.223-1.303l-0.445-1.125l-2.74-0.473l-1.555-0.479l-3.037,0.359h-2.594l-2.666,0.119l-3.703,1.078l-2.668,1.256l-4.295,3.172
		l-0.889,1.734l-1.408,2.455l0.371,2.813l1.184,2.332l1.186,1.438l3.85,2.213l2.223,1.496l2.592,1.316l2,1.496l2.369,1.438
		l4.887,2.332l2.445,1.736l1.777,1.615l1.703,0.957l0.443,1.377l2.443,3.172l1.037,1.975l0.592,2.154l1.111,2.334l0.889,2.213
		l0.148,3.172l-0.592,2.453l-1.699,2.873l-0.887,2.273l-1.848,1.615l-0.887,1.496l-2.143,1.795l-1.92,1.258l-3.178,0.957
		l-4.285,0.598L675.974,123l-3.398-0.547l-2.363-0.121l-2.145-0.365l-1.625-0.73h-1.107l-0.592-0.607l0.295-1.398l0.592-0.73h1.107
		v0.732l0.297,0.49l1.033,0.549l2.143,0.734l4.803,0.244l1.551-0.359l2.365,0.119l3.176-0.717l2.881-1.018l3.547-1.975l0.592-1.436
		l1.477-1.975l0.887-2.094l1.107-1.557l0.148-1.855l0.738-2.691l-0.59-1.736l-0.592-2.334l-1.553-1.795l-0.74-2.213l-1.33-2.094
		l-0.961-1.975l-1.775-0.838l-1.404-1.258l-2.07-1.195l-1.848-1.496l-3.326-1.197l-1.996-1.615l-2.219-0.359l-2.145-1.496
		l-2.734-1.555l-1.479-1.018l-2.736-0.6l-2.588-1.854l-2.291-2.154l-1.332-2.215l-1.404-2.334v-4.666l1.258-2.572l1.479-2.455
		l1.701-2.094l1.924-1.676l1.848-1.375l2.293-1.496l2.736-1.078l2.367-0.717l3.477-0.119l3.328-0.24l3.328-0.664l2.885-1.207
		l3.033-0.725l1.404-0.904l2.885,0.359l1.627,1.256l0.961,2.213l1.184,1.195l1.48,1.256l0.961,1.914l0.297,1.854L699.118,62.754z
		 M699.743,65.486l-0.146,1.396l-1.986,0.361l-1.322-0.119l-1.545-1.154L696.14,65l2.133-0.121L699.743,65.486z"/>
</g>
</svg>
